<?xml version="1.0" encoding="UTF-8" standalone="no" ?><!DOCTYPE svg PUBLIC "-//W3C//DTD SVG 1.1//EN"
    "http://www.w3.org/Graphics/SVG/1.1/DTD/svg11.dtd">
<svg height="500" version="1.1" viewBox="0 0 500 500" width="500" xmlns="http://www.w3.org/2000/svg" xml:space="preserve">
<desc>Created with Fabric.js 4.6.0</desc>
    <defs>
</defs>
    <g id="secWH1ACc3BANPqjNxgll" transform="matrix(1 0 0 1 24 24)">
</g>
    <g id="FzIlQ41nOuUOOwALWTyUm" transform="matrix(0.84 0 0 0.84 250 250)">
<path
    style="stroke: none; stroke-width: 1; stroke-dasharray: none; stroke-linecap: butt; stroke-dashoffset: 0; stroke-linejoin: miter; stroke-miterlimit: 4; fill: rgb(61,220,132); fill-rule: nonzero; opacity: 1;"
    d="M 119.859 427.08 L 239.03699999999998 498.46999999999997 C 241.659 500.21799999999996 244.86499999999998 501.092 248.06999999999996 501.092 C 250.98399999999995 501.092 254.18899999999996 500.21799999999996 256.81199999999995 498.76099999999997 L 380.35999999999996 427.371 C 388.51899999999995 422.709 391.43299999999994 412.51 387.35299999999995 404.06 L 266.135 163.665 C 276.334 157.546 283.036 146.47299999999998 283.036 133.652 C 283.036 114.41999999999999 267.301 98.68499999999999 248.06900000000002 98.68499999999999 C 228.83700000000005 98.68499999999999 213.10200000000003 114.41999999999999 213.10200000000003 133.652 C 213.10200000000003 146.47299999999998 220.09500000000003 157.546 230.29400000000004 163.665 L 113.448 404.352 C 109.369 412.511 112.283 422.418 119.859 427.08 z M 201.447 302.949 L 240.784 324.803 C 243.406 326.26 246.32 327.134 249.23399999999998 327.134 C 252.439 327.134 255.35299999999998 326.26 257.976 324.803 L 296.439 302.075 L 317.12800000000004 342.86899999999997 C 313.92300000000006 342.578 310.42600000000004 343.452 307.51200000000006 345.2 L 250.10900000000007 379.001 L 184.83800000000008 342.86899999999997 C 183.96400000000008 342.578 183.38100000000009 341.99499999999995 182.5070000000001 341.703 L 201.447 302.949 z M 216.891 271.479 L 248.361 206.791 L 280.705 270.896 L 248.944 289.545 L 216.891 271.479 z M 167.355 373.173 C 167.646 373.173 167.646 373.464 167.938 373.464 L 241.951 414.55 C 244.57299999999998 416.007 247.487 416.88100000000003 250.40099999999998 416.88100000000003 C 253.606 416.88100000000003 256.52 416.007 259.143 414.55 L 325.28799999999995 375.504 C 327.61899999999997 374.047 329.65899999999993 372.29900000000004 330.82399999999996 370.259 L 348.59899999999993 405.517 L 248.36199999999994 463.212 L 151.62099999999992 405.517 L 167.355 373.173 z M 416.492 252.247 C 444.757 221.651 460.20000000000005 182.02300000000002 460.20000000000005 140.354 C 460.20000000000005 99.26800000000001 445.04800000000006 59.640000000000015 417.36600000000004 29.335000000000008 C 410.95500000000004 22.050000000000008 411.53800000000007 11.269000000000009 418.53200000000004 4.567000000000007 C 425.81700000000006 -1.8439999999999923 436.598 -1.260999999999993 443.30000000000007 5.733000000000008 C 476.81000000000006 42.739000000000004 495.1670000000001 90.527 495.1670000000001 140.354 C 495.1670000000001 190.764 476.5180000000001 238.84300000000002 442.4260000000001 275.84900000000005 C 438.9290000000001 279.63700000000006 434.2670000000001 281.38500000000005 429.6050000000001 281.38500000000005 C 425.2340000000001 281.38500000000005 421.1550000000001 279.92800000000005 417.6580000000001 276.72300000000007 C 410.372 270.313 409.79 259.532 416.492 252.247 z M 405.128 140.646 C 405.128 170.076 394.055 198.04899999999998 374.241 219.61199999999997 C 370.74399999999997 223.39999999999998 366.082 225.14799999999997 361.41999999999996 225.14799999999997 C 357.049 225.14799999999997 352.96999999999997 223.69099999999997 349.47299999999996 220.48599999999996 C 342.47999999999996 214.07499999999996 341.89699999999993 203.00299999999996 348.30699999999996 195.71799999999996 C 362.294 180.56599999999997 369.86999999999995 161.04299999999995 369.86999999999995 140.35399999999996 C 369.86999999999995 119.95699999999997 362.2939999999999 100.43399999999995 348.59899999999993 85.57299999999995 C 342.18799999999993 78.28799999999995 342.77099999999996 67.50699999999995 349.76499999999993 60.80499999999995 C 357.04999999999995 54.39399999999995 367.8309999999999 54.97699999999995 374.5329999999999 61.97099999999995 C 394.346 83.825 405.128 111.507 405.128 140.646 z M 58.667 275.85 C 24.575 238.843 5.926 190.764 5.926 140.354 C 5.926 90.52700000000002 24.283 42.73900000000002 57.793 5.733000000000004 C 64.204 -1.551999999999996 75.276 -1.8429999999999955 82.561 4.567000000000004 C 89.84600000000002 10.977000000000004 90.137 22.050000000000004 83.727 29.335000000000004 C 56.045 59.64 40.893 99.269 40.893 140.354 C 40.893 182.02200000000002 56.337 221.651 84.601 252.247 C 91.012 259.24 90.72 270.313 83.435 277.015 C 79.938 280.21999999999997 75.85900000000001 281.67699999999996 71.488 281.67699999999996 C 66.826 281.677 62.164 279.638 58.667 275.85 z M 151.911 85.865 C 138.216 101.017 130.64 120.53999999999999 130.64 140.646 C 130.64 161.33499999999998 138.21599999999998 180.858 152.20299999999997 196.01 C 158.61399999999998 203.003 158.32199999999997 214.076 151.03699999999998 220.778 C 147.53999999999996 223.983 143.46099999999998 225.44 139.08999999999997 225.44 C 134.42799999999997 225.44 129.76599999999996 223.4 126.26899999999998 219.904 C 106.45499999999998 198.341 95.38199999999998 170.368 95.38199999999998 140.938 C 95.38199999999998 111.79899999999999 106.16299999999998 84.11699999999999 125.68599999999998 62.55499999999999 C 132.09699999999998 55.269999999999996 143.16899999999998 54.97899999999999 150.45399999999998 61.388999999999996 C 157.739 67.507 158.322 78.58 151.911 85.865 z" stroke-linecap="round"
    transform=" translate(-250.55, -250.55)"
    vector-effect="non-scaling-stroke" />
</g>
    <g id="GM10MV5i0Et_Afuil5NUE" transform="matrix(5.2 0 0 5.2 248 122.95)">
<path
    style="stroke: none; stroke-width: 1; stroke-dasharray: none; stroke-linecap: butt; stroke-dashoffset: 0; stroke-linejoin: miter; stroke-miterlimit: 4; fill: rgb(61,220,132); fill-rule: nonzero; opacity: 1;"
    d="M 5 16 C 5 19.87 8.129999999999999 23 12 23 C 15.870000000000001 23 19 19.87 19 16 L 19 12 L 5 12 L 5 16 z M 16.12 4.37 L 18.220000000000002 2.27 L 17.400000000000002 1.44 L 15.100000000000001 3.75 C 14.16 3.28 13.12 3 12 3 C 10.88 3 9.84 3.2800000000000002 8.91 3.75 L 6.6 1.44 L 5.779999999999999 2.27 L 7.879999999999999 4.37 C 6.14 5.64 5 7.68 5 10 L 5 11 L 19 11 L 19 10 C 19 7.68 17.86 5.64 16.12 4.37 z M 9 9 C 8.45 9 8 8.55 8 8 C 8 7.449999999999999 8.45 7 9 7 C 9.55 7 10 7.45 10 8 C 10 8.55 9.55 9 9 9 z M 15 9 C 14.45 9 14 8.55 14 8 C 14 7.449999999999999 14.45 7 15 7 C 15.55 7 16 7.45 16 8 C 16 8.55 15.55 9 15 9 z" stroke-linecap="round"
    transform=" translate(-12, -12.22)"
    vector-effect="non-scaling-stroke" />
</g>
</svg>